<?xml version="1.0" encoding="UTF-8" ?>
<!DOCTYPE svg PUBLIC "-//W3C//DTD SVG 1.1//EN" "http://www.w3.org/Graphics/SVG/1.1/DTD/svg11.dtd">
<svg width="846pt" height="559pt" viewBox="0 0 846 559" version="1.1" xmlns="http://www.w3.org/2000/svg">
<g id="#000000ff">
<path fill="#000000" opacity="1.00" d=" M 157.01 79.97 C 174.96 79.97 192.91 79.96 210.87 79.98 C 210.88 151.59 210.88 223.19 210.87 294.80 C 278.87 224.88 346.81 154.90 414.83 84.99 C 435.33 85.01 455.83 85.00 476.34 85.00 C 475.97 87.14 478.00 88.42 479.08 89.98 C 579.63 215.65 680.20 341.31 780.73 466.99 C 762.41 467.02 744.10 466.98 725.78 467.01 C 632.52 350.53 539.33 233.99 446.09 117.49 C 402.10 163.80 358.11 210.11 314.17 256.47 C 371.87 326.30 429.56 396.15 487.24 465.99 C 465.93 465.94 444.62 466.14 423.31 465.89 C 374.90 409.42 326.21 353.18 277.69 296.79 C 255.64 319.02 233.75 341.43 211.72 363.70 C 210.55 364.94 208.94 366.07 209.02 367.99 C 205.78 392.78 196.84 417.87 178.72 435.73 C 161.60 452.91 137.67 461.54 113.94 464.22 C 99.69 465.84 85.23 466.01 71.01 464.08 C 70.99 448.18 71.01 432.29 71.00 416.39 C 88.02 420.05 106.52 419.83 122.64 412.70 C 135.85 406.88 145.73 395.05 150.64 381.63 C 155.55 368.68 156.97 354.70 157.00 340.94 C 157.01 253.95 156.99 166.96 157.01 79.97 Z" />
<path fill="#000000" opacity="1.00" d=" M 551.77 126.51 C 626.01 126.49 700.25 126.49 774.49 126.51 C 774.55 137.96 774.41 149.42 774.57 160.88 C 709.43 161.16 644.28 160.92 579.14 161.00 C 570.01 149.50 560.84 138.05 551.77 126.51 Z" />
<path fill="#000000" opacity="1.00" d=" M 613.30 204.01 C 667.03 203.99 720.77 204.00 774.50 204.00 C 774.50 216.17 774.51 228.33 774.49 240.50 C 730.38 240.46 686.27 240.60 642.16 240.42 C 632.62 228.22 622.90 216.16 613.30 204.01 Z" />
<path fill="#000000" opacity="1.00" d=" M 668.12 273.00 C 703.59 273.01 739.05 272.96 774.52 273.03 C 774.50 284.00 774.47 294.97 774.53 305.94 C 747.79 306.07 721.04 305.98 694.30 305.99 C 685.59 294.98 676.83 284.01 668.12 273.00 Z" />
<path fill="#000000" opacity="1.00" d=" M 371.02 292.50 C 428.35 292.48 485.69 292.54 543.02 292.47 C 544.20 292.61 545.86 292.04 546.62 293.32 C 559.63 309.20 572.62 325.10 585.60 340.99 C 529.14 341.00 472.67 341.01 416.21 340.99 C 401.15 324.81 386.06 308.68 371.02 292.50 Z" />
<path fill="#000000" opacity="1.00" d=" M 720.96 339.50 C 738.80 339.50 756.65 339.49 774.50 339.51 C 774.50 347.83 774.50 356.16 774.50 364.49 C 763.27 364.51 752.05 364.49 740.82 364.50 C 734.18 356.19 727.56 347.85 720.96 339.50 Z" />
</g>
</svg>
