<?xml version="1.0" encoding="UTF-8" ?>
<!DOCTYPE svg PUBLIC "-//W3C//DTD SVG 1.1//EN" "http://www.w3.org/Graphics/SVG/1.1/DTD/svg11.dtd">
<svg width="1175pt" height="777pt" viewBox="0 0 1175 777" version="1.1" xmlns="http://www.w3.org/2000/svg">
<g id="#ffffffff">
<path fill="#ffffff" opacity="1.00" d=" M 218.00 111.00 C 242.97 111.00 267.95 110.99 292.92 111.00 C 292.92 210.44 292.91 309.87 292.92 409.30 C 387.34 312.21 481.67 215.03 576.14 117.99 C 604.58 118.02 633.03 117.98 661.47 118.01 C 661.42 121.09 664.02 123.04 665.72 125.27 C 805.27 299.72 944.90 474.11 1084.43 648.57 C 1058.90 648.56 1033.37 648.65 1007.84 648.53 C 938.66 561.93 869.33 475.45 800.11 388.89 C 739.91 313.68 679.79 238.41 619.51 163.27 C 558.51 227.60 497.39 291.82 436.43 356.19 C 516.57 453.17 596.68 550.17 676.80 647.16 C 647.17 647.17 617.54 647.41 587.92 647.08 C 520.66 568.68 453.07 490.56 385.68 412.28 C 354.40 443.77 323.41 475.54 292.18 507.08 C 289.64 509.37 290.37 513.08 289.64 516.10 C 284.72 548.38 272.51 580.72 249.20 604.26 C 226.59 627.42 194.98 639.77 163.35 644.11 C 141.90 646.97 120.07 647.42 98.60 644.58 C 98.57 622.46 98.60 600.35 98.58 578.24 C 121.42 583.13 145.97 583.04 167.85 574.15 C 183.48 568.02 196.21 555.69 204.17 541.04 C 214.71 521.13 217.73 498.20 218.00 475.95 C 218.00 354.30 218.00 232.65 218.00 111.00 Z" />
<path fill="#ffffff" opacity="1.00" d=" M 766.27 175.67 C 869.42 175.66 972.57 175.69 1075.72 175.65 C 1075.84 191.60 1075.61 207.55 1075.85 223.50 C 985.35 223.89 894.85 223.47 804.35 223.67 C 791.65 207.67 778.87 191.74 766.27 175.67 Z" />
<path fill="#ffffff" opacity="1.00" d=" M 851.68 283.24 C 926.37 283.26 1001.06 283.25 1075.75 283.25 C 1075.75 300.19 1075.75 317.13 1075.75 334.08 C 1014.45 333.91 953.15 334.28 891.85 333.92 C 878.56 316.95 865.03 300.17 851.68 283.24 Z" />
<path fill="#ffffff" opacity="1.00" d=" M 927.83 379.07 C 977.14 379.14 1026.45 378.97 1075.75 379.17 C 1075.75 394.41 1075.75 409.66 1075.75 424.91 C 1038.59 425.10 1001.42 424.96 964.25 424.99 C 952.14 409.66 939.93 394.41 927.83 379.07 Z" />
<path fill="#ffffff" opacity="1.00" d=" M 515.12 406.16 C 595.76 406.18 676.40 406.14 757.04 406.18 C 758.37 405.98 759.11 407.18 759.86 408.05 C 777.71 429.90 795.58 451.72 813.42 473.58 C 735.05 473.57 656.67 473.63 578.30 473.55 C 571.05 466.58 564.45 458.80 557.45 451.52 C 543.32 436.42 529.26 421.25 515.12 406.16 Z" />
<path fill="#ffffff" opacity="1.00" d=" M 1001.21 471.43 C 1026.05 471.42 1050.89 471.37 1075.72 471.48 C 1075.79 483.06 1075.72 494.65 1075.76 506.24 C 1060.13 506.27 1044.50 506.24 1028.87 506.25 C 1019.62 494.67 1010.39 483.06 1001.21 471.43 Z" />
</g>
</svg>
